<svg xmlns="http://www.w3.org/2000/svg" xmlns:svg="http://www.w3.org/2000/svg" id="svg8" width="100" height="100" version="1.1" viewBox="0 0 26.458 26.458"><metadata id="metadata5"/><g id="layer1" transform="translate(0,-270.54165)"><path style="opacity:1;fill:none;fill-opacity:1;stroke:#000;stroke-width:.79401457;stroke-linecap:round;stroke-linejoin:round;stroke-miterlimit:4;stroke-dasharray:none;stroke-dashoffset:0;stroke-opacity:1;paint-order:markers fill stroke" id="circle827" d="m 16.605798,283.79968 a 3.3849387,3.3849387 0 0 1 -3.384938,3.38494 3.3849387,3.3849387 0 0 1 -3.3849392,-3.38494 3.3849387,3.3849387 0 0 1 3.3849392,-3.38494 3.3849387,3.3849387 0 0 1 3.384938,3.38494 z"/><path style="fill:none;stroke:#000;stroke-width:.79400003;stroke-linecap:round;stroke-linejoin:round;stroke-miterlimit:4;stroke-dasharray:none;stroke-opacity:1" id="path828" d="m 13.22086,280.41474 c 1.86945,0 3.384939,1.51549 3.384938,3.38494 h 3.006782 c 0,-3.53005 -2.861671,-6.39172 -6.39172,-6.39172 z"/><path id="path830" d="m 8.260336,283.79735 h 1.570208 c 0,1.86945 1.515489,3.38494 3.384939,3.38494 v 1.57021 c -2.736653,0 -4.955149,-2.2185 -4.955147,-4.95515 z" style="opacity:1;fill:none;fill-opacity:1;stroke:#000;stroke-width:.79400003;stroke-linecap:round;stroke-linejoin:round;stroke-miterlimit:4;stroke-dasharray:none;stroke-dashoffset:0;stroke-opacity:1;paint-order:markers fill stroke"/><path style="opacity:1;fill:none;fill-opacity:1;stroke:#000;stroke-width:.79400003;stroke-linecap:round;stroke-linejoin:round;stroke-miterlimit:4;stroke-dasharray:none;stroke-dashoffset:0;stroke-opacity:1;paint-order:markers fill stroke" id="path838" d="m 13.22086,278.84453 v 1.57021 c -1.86945,0 -3.3849397,1.51549 -3.3849397,3.38494 h -1.57021 c 0,-2.73665 2.2184997,-4.95515 4.9551497,-4.95515 z"/><path id="path840" d="m 13.215483,288.7525 v -1.57021 c 1.86945,0 3.384939,-1.51549 3.384939,-3.38494 h 1.57021 c 0,2.73665 -2.218499,4.95515 -4.955149,4.95515 z" style="opacity:1;fill:none;fill-opacity:1;stroke:#000;stroke-width:.79400003;stroke-linecap:round;stroke-linejoin:round;stroke-miterlimit:4;stroke-dasharray:none;stroke-dashoffset:0;stroke-opacity:1;paint-order:markers fill stroke"/></g></svg>